<svg width="204" height="203" xmlns="http://www.w3.org/2000/svg">
 <!-- Created with Method Draw - http://github.com/duopixel/Method-Draw/ -->
 <g>
  <title>background</title>
  <rect fill="#ff5656" id="canvas_background" height="205" width="206" y="-1" x="-1"/>
  <g display="none" overflow="visible" y="0" x="0" height="100%" width="100%" id="canvasGrid">
   <rect fill="url(#gridpattern)" stroke-width="0" y="0" x="0" height="100%" width="100%"/>
  </g>
 </g>
 <g>
  <title>Layer 1</title>
  <path d="m630.5,50.5c0,3 -0.886566,7.243988 2,16c3.083595,9.353683 10.060081,18.973534 14,28c3.0466,6.979843 11.438614,26.817596 15,36c1.143494,2.948288 1,4 1,7c0,2 0.88134,4.025208 2,9c0.904556,4.022659 4.20681,9.812653 6,12c2.285881,2.78833 2.186005,3.692551 4,5c2.29454,1.653809 3,4 4,5c1,1 7.450142,1.880768 12,-1c16.141541,-10.220108 21.910507,-20.067902 28,-28c10.842026,-14.122696 14.56868,-23.782753 17,-31c2.632584,-7.814697 4.499847,-34.981262 5,-55c0.199814,-7.997505 0,-16 0,-21c0,-2 1.644012,-0.33379 4,5c4.218384,9.55014 9.523926,29.101501 17,63c3.76123,17.05442 13.708435,59.903229 15,72c2.231995,20.904984 3.116898,29.967651 5,37c3.199493,11.948349 4,17 5,21l1,5l0,2l1,3" id="svg_1" stroke-width="1.5" stroke="#000" fill="none"/>
  <text stroke="#000" transform="matrix(1.809936761856079,0,0,2.0740740299224854,-41.711743235588074,-93.98147761821747) " xml:space="preserve" text-anchor="start" font-family="Helvetica, Arial, sans-serif" font-size="24" id="svg_2" y="69.196377" x="25.279561" stroke-opacity="null" stroke-width="0" fill="#153723">EDDY</text>
  <text style="cursor: move;" stroke="#000" transform="matrix(1.2887891982469424,0,0,1.4583174291219336,-43.20855258374806,-62.654110135413916) " xml:space="preserve" text-anchor="start" font-family="Helvetica, Arial, sans-serif" font-size="24" id="svg_3" y="100.467849" x="40.66112" stroke-opacity="null" stroke-width="0" fill="#482816">BOGOTA</text>
  <text xml:space="preserve" text-anchor="start" font-family="Helvetica, Arial, sans-serif" font-size="24" id="svg_5" y="115.482965" x="8.356515" stroke-width="0" stroke="#02000c" fill="#894F3F">ING. SISTEMAS</text>
  <path stroke="#02000c" id="svg_6" d="m62.042472,127.207365c6.362535,-3.654254 20.78328,0.730851 28.736449,3.692518c2.280909,-0.229587 4.672862,-0.353946 7.166855,-0.353946c10.051004,0 18.163236,1.884524 24.327692,5.43929c7.010793,4.092382 10.897342,9.451316 10.897342,15.644415c0,0.05357 -0.003001,0.10714 -0.003001,0.160711c-9.86493,-9.853093 -25.035975,-14.903998 -29.057577,-16.237514c-0.636253,-0.189409 -1.014404,0.296549 -0.423169,0.484045c0.045018,0.080355 0.045018,0 0,0c6.764695,2.582849 19.309693,10.061634 27.448936,20.827333l0.009004,-0.013393c5.153053,6.786198 9.504787,16.317869 0.801319,19.817152c-6.593627,2.644073 -18.39733,-0.474479 -27.896114,-4.434848c-2.292914,0.206628 -4.702874,0.315682 -7.247888,0.315682c-17.526983,0 -29.822882,-6.166314 -34.21063,-15.16037l24.075592,-0.026785c1.011403,3.177861 4.393751,4.874889 9.672854,4.874889c6.632643,0 11.191459,-2.316912 11.488577,-7.675846l-45.702208,-0.026785c-0.084033,-1.105842 0.12605,-1.884524 0.12605,-2.747387c0,-10.046328 9.432758,-17.89819 24.774871,-20.400685c-6.245488,-2.475709 -17.929143,-6.139529 -23.553384,-3.216126c-4.222682,2.181073 -1.899757,6.759413 -0.885353,8.643936c0.168067,0.485958 -0.720287,0.566314 -0.888354,0.109054c-2.106839,-3.388316 -2.743093,-7.939871 0.342136,-9.715341zm44.195608,44.788524c7.409952,2.822002 17.626022,4.85767 22.626014,2.466143c3.730486,-1.788862 2.088832,-6.635053 -1.194476,-11.360711c-1.992794,1.897916 -4.486788,3.608336 -7.421957,5.031773c-3.967581,1.901743 -8.628438,3.189341 -14.009582,3.862795zm1.674667,-24.163992c-0.12605,-4.658695 -5.363137,-6.677144 -10.855325,-6.677144c-5.786305,0 -10.474173,2.127503 -10.474173,6.677144l21.329498,0z" stroke-width="0" fill="#894F3F"/>
  <path id="svg_7" d="m135.061416,34.83214c7.936164,0 15.397911,2.145596 21.003246,6.03794c5.618226,3.894124 8.707091,9.082728 8.707091,14.6043l12.234275,0c0,-16.039446 -18.819383,-29.08574 -41.947189,-29.08574l0,8.4435l0.002578,0zm0.01547,-14.971099c28.292243,0 51.304024,15.980686 51.304024,35.622241l12.229118,0c0,-24.297766 -28.50109,-44.067522 -63.535721,-44.067522l0,8.445281l0.002578,0zm16.913981,29.719625c0,3.231749 -3.792754,5.852759 -8.469882,5.852759s-8.469882,-2.621011 -8.469882,-5.852759c0,-3.228188 3.792754,-5.849198 8.469882,-5.849198s8.469882,2.61923 8.469882,5.849198z" fill-opacity="null" stroke-opacity="null" stroke-width="0" stroke="#02000c" fill="#894F3F"/>
 </g>
</svg>